<svg width="20" height="20" viewBox="0 0 20 20" fill="none" xmlns="http://www.w3.org/2000/svg">
<path d="M18.6524 5C18.086 4.02539 11.1379 0 10.0063 0C8.87464 0 1.92385 4.01523 1.36096 5C0.798072 5.98477 0.794947 14.0156 1.36096 15C1.92698 15.9844 8.87581 20 10.0063 20C11.1367 20 18.086 15.9797 18.652 15C19.218 14.0203 19.2188 5.97656 18.6524 5ZM12.3489 16.1805C12.1926 16.1805 10.7508 14.7832 10.8645 14.6691C10.8985 14.6352 11.109 14.6113 11.55 14.5977C11.55 13.573 11.5731 11.9184 11.5867 11.2258C11.5867 11.1477 11.5696 11.0918 11.5696 10.9973H8.44729C8.44729 11.2746 8.42932 12.4113 8.50081 13.8441C8.50979 14.0215 8.43909 14.0785 8.27659 14.0762C7.88089 14.0762 7.48479 14.0719 7.0887 14.073C6.92854 14.073 6.8594 14.0133 6.86448 13.8344C6.90042 12.5281 6.98167 10.5531 6.85862 5.52695V5.40313C6.48089 5.38945 6.21878 5.36406 6.1844 5.33125C6.07034 5.21719 7.53362 3.81992 7.68792 3.81992C7.84221 3.81992 9.29612 5.21758 9.18284 5.33125C9.14885 5.36523 8.87424 5.38945 8.52776 5.40313V5.52656C8.43323 6.53242 8.44963 8.63555 8.42502 9.64336H11.5602C11.5602 9.46562 11.5754 8.28633 11.5133 6.37617C11.5094 6.24375 11.5504 6.17422 11.6778 6.17305C12.1102 6.16992 12.543 6.16797 12.9758 6.1707C13.111 6.1707 13.1543 6.23789 13.1516 6.38086C13.0078 13.8531 13.125 13.3316 13.125 14.5973C13.4715 14.6109 13.7821 14.6363 13.816 14.6691C13.9285 14.7828 12.5028 16.1805 12.3481 16.1805H12.3489Z" fill="#165F72"/>
</svg>
