<svg width="20" height="20" viewBox="0 0 20 20" fill="none" xmlns="http://www.w3.org/2000/svg">
<path d="M14.375 0H5.625C4.58984 0 3.75 0.839844 3.75 1.875V18.125C3.75 19.1602 4.58984 20 5.625 20H14.375C15.4102 20 16.25 19.1602 16.25 18.125V1.875C16.25 0.839844 15.4102 0 14.375 0ZM10 18.75C9.30859 18.75 8.75 18.1914 8.75 17.5C8.75 16.8086 9.30859 16.25 10 16.25C10.6914 16.25 11.25 16.8086 11.25 17.5C11.25 18.1914 10.6914 18.75 10 18.75ZM14.375 14.5312C14.375 14.7891 14.1641 15 13.9062 15H6.09375C5.83594 15 5.625 14.7891 5.625 14.5312V2.34375C5.625 2.08594 5.83594 1.875 6.09375 1.875H13.9062C14.1641 1.875 14.375 2.08594 14.375 2.34375V14.5312Z" fill="#165F72"/>
</svg>
